<?xml version="1.0" encoding="UTF-8" standalone="no"?>
<!DOCTYPE svg PUBLIC "-//W3C//DTD SVG 1.1//EN"
 "http://www.w3.org/Graphics/SVG/1.1/DTD/svg11.dtd">
<!-- Generated by graphviz version 13.1.0 (20250701.0955)
 -->
<!-- Title: Tree Pages: 1 -->
<svg width="1077pt" height="491pt"
 viewBox="0.00 0.00 1077.00 491.00" xmlns="http://www.w3.org/2000/svg" xmlns:xlink="http://www.w3.org/1999/xlink">
<g id="graph0" class="graph" transform="scale(1 1) rotate(0) translate(4 487.25)">
<title>Tree</title>
<polygon fill="white" stroke="none" points="-4,4 -4,-487.25 1073.38,-487.25 1073.38,4 -4,4"/>
<!-- 0 -->
<g id="node1" class="node">
<title>0</title>
<polygon fill="#afd7f4" stroke="black" points="668.5,-483.25 514.5,-483.25 514.5,-412.25 668.5,-412.25 668.5,-483.25"/>
<text xml:space="preserve" text-anchor="middle" x="591.5" y="-465.95" font-family="Helvetica,sans-Serif" font-size="14.00">worst radius &lt;= 16.795</text>
<text xml:space="preserve" text-anchor="middle" x="591.5" y="-450.2" font-family="Helvetica,sans-Serif" font-size="14.00">samples = 426</text>
<text xml:space="preserve" text-anchor="middle" x="591.5" y="-434.45" font-family="Helvetica,sans-Serif" font-size="14.00">value = [159, 267]</text>
<text xml:space="preserve" text-anchor="middle" x="591.5" y="-418.7" font-family="Helvetica,sans-Serif" font-size="14.00">class = benign</text>
</g>
<!-- 1 -->
<g id="node2" class="node">
<title>1</title>
<polygon fill="#4ca6e8" stroke="black" points="573.38,-376.25 373.62,-376.25 373.62,-305.25 573.38,-305.25 573.38,-376.25"/>
<text xml:space="preserve" text-anchor="middle" x="473.5" y="-358.95" font-family="Helvetica,sans-Serif" font-size="14.00">worst concave points &lt;= 0.136</text>
<text xml:space="preserve" text-anchor="middle" x="473.5" y="-343.2" font-family="Helvetica,sans-Serif" font-size="14.00">samples = 284</text>
<text xml:space="preserve" text-anchor="middle" x="473.5" y="-327.45" font-family="Helvetica,sans-Serif" font-size="14.00">value = [25, 259]</text>
<text xml:space="preserve" text-anchor="middle" x="473.5" y="-311.7" font-family="Helvetica,sans-Serif" font-size="14.00">class = benign</text>
</g>
<!-- 0&#45;&gt;1 -->
<g id="edge1" class="edge">
<title>0&#45;&gt;1</title>
<path fill="none" stroke="black" d="M552.21,-411.79C542.26,-402.93 531.46,-393.32 521.14,-384.14"/>
<polygon fill="black" stroke="black" points="523.55,-381.6 513.75,-377.57 518.9,-386.83 523.55,-381.6"/>
<text xml:space="preserve" text-anchor="middle" x="514.08" y="-396.09" font-family="Helvetica,sans-Serif" font-size="14.00">True</text>
</g>
<!-- 14 -->
<g id="node15" class="node">
<title>14</title>
<polygon fill="#e78945" stroke="black" points="751.12,-376.25 603.88,-376.25 603.88,-305.25 751.12,-305.25 751.12,-376.25"/>
<text xml:space="preserve" text-anchor="middle" x="677.5" y="-358.95" font-family="Helvetica,sans-Serif" font-size="14.00">texture error &lt;= 0.473</text>
<text xml:space="preserve" text-anchor="middle" x="677.5" y="-343.2" font-family="Helvetica,sans-Serif" font-size="14.00">samples = 142</text>
<text xml:space="preserve" text-anchor="middle" x="677.5" y="-327.45" font-family="Helvetica,sans-Serif" font-size="14.00">value = [134, 8]</text>
<text xml:space="preserve" text-anchor="middle" x="677.5" y="-311.7" font-family="Helvetica,sans-Serif" font-size="14.00">class = malignant</text>
</g>
<!-- 0&#45;&gt;14 -->
<g id="edge14" class="edge">
<title>0&#45;&gt;14</title>
<path fill="none" stroke="black" d="M620.14,-411.79C627.1,-403.29 634.63,-394.09 641.87,-385.25"/>
<polygon fill="black" stroke="black" points="644.4,-387.69 648.03,-377.73 638.99,-383.25 644.4,-387.69"/>
<text xml:space="preserve" text-anchor="middle" x="651.46" y="-396.01" font-family="Helvetica,sans-Serif" font-size="14.00">False</text>
</g>
<!-- 2 -->
<g id="node3" class="node">
<title>2</title>
<polygon fill="#3c9fe5" stroke="black" points="356.75,-269.25 216.25,-269.25 216.25,-198.25 356.75,-198.25 356.75,-269.25"/>
<text xml:space="preserve" text-anchor="middle" x="286.5" y="-251.95" font-family="Helvetica,sans-Serif" font-size="14.00">area error &lt;= 91.555</text>
<text xml:space="preserve" text-anchor="middle" x="286.5" y="-236.2" font-family="Helvetica,sans-Serif" font-size="14.00">samples = 252</text>
<text xml:space="preserve" text-anchor="middle" x="286.5" y="-220.45" font-family="Helvetica,sans-Serif" font-size="14.00">value = [4, 248]</text>
<text xml:space="preserve" text-anchor="middle" x="286.5" y="-204.7" font-family="Helvetica,sans-Serif" font-size="14.00">class = benign</text>
</g>
<!-- 1&#45;&gt;2 -->
<g id="edge2" class="edge">
<title>1&#45;&gt;2</title>
<path fill="none" stroke="black" d="M411.23,-304.79C394.29,-295.27 375.8,-284.89 358.37,-275.11"/>
<polygon fill="black" stroke="black" points="360.57,-272.32 350.13,-270.48 357.14,-278.43 360.57,-272.32"/>
</g>
<!-- 7 -->
<g id="node8" class="node">
<title>7</title>
<polygon fill="#f3c3a1" stroke="black" points="549,-269.25 398,-269.25 398,-198.25 549,-198.25 549,-269.25"/>
<text xml:space="preserve" text-anchor="middle" x="473.5" y="-251.95" font-family="Helvetica,sans-Serif" font-size="14.00">worst texture &lt;= 25.62</text>
<text xml:space="preserve" text-anchor="middle" x="473.5" y="-236.2" font-family="Helvetica,sans-Serif" font-size="14.00">samples = 32</text>
<text xml:space="preserve" text-anchor="middle" x="473.5" y="-220.45" font-family="Helvetica,sans-Serif" font-size="14.00">value = [21, 11]</text>
<text xml:space="preserve" text-anchor="middle" x="473.5" y="-204.7" font-family="Helvetica,sans-Serif" font-size="14.00">class = malignant</text>
</g>
<!-- 1&#45;&gt;7 -->
<g id="edge7" class="edge">
<title>1&#45;&gt;7</title>
<path fill="none" stroke="black" d="M473.5,-304.79C473.5,-297.17 473.5,-289 473.5,-281.02"/>
<polygon fill="black" stroke="black" points="477,-281.07 473.5,-271.07 470,-281.07 477,-281.07"/>
</g>
<!-- 3 -->
<g id="node4" class="node">
<title>3</title>
<polygon fill="#3b9ee5" stroke="black" points="207.25,-162.25 81.75,-162.25 81.75,-91.25 207.25,-91.25 207.25,-162.25"/>
<text xml:space="preserve" text-anchor="middle" x="144.5" y="-144.95" font-family="Helvetica,sans-Serif" font-size="14.00">area error &lt;= 48.7</text>
<text xml:space="preserve" text-anchor="middle" x="144.5" y="-129.2" font-family="Helvetica,sans-Serif" font-size="14.00">samples = 251</text>
<text xml:space="preserve" text-anchor="middle" x="144.5" y="-113.45" font-family="Helvetica,sans-Serif" font-size="14.00">value = [3, 248]</text>
<text xml:space="preserve" text-anchor="middle" x="144.5" y="-97.7" font-family="Helvetica,sans-Serif" font-size="14.00">class = benign</text>
</g>
<!-- 2&#45;&gt;3 -->
<g id="edge3" class="edge">
<title>2&#45;&gt;3</title>
<path fill="none" stroke="black" d="M239.22,-197.79C226.88,-188.67 213.47,-178.75 200.72,-169.32"/>
<polygon fill="black" stroke="black" points="202.92,-166.59 192.79,-163.46 198.75,-172.22 202.92,-166.59"/>
</g>
<!-- 6 -->
<g id="node7" class="node">
<title>6</title>
<polygon fill="#e58139" stroke="black" points="347.38,-154.38 225.62,-154.38 225.62,-99.12 347.38,-99.12 347.38,-154.38"/>
<text xml:space="preserve" text-anchor="middle" x="286.5" y="-137.07" font-family="Helvetica,sans-Serif" font-size="14.00">samples = 1</text>
<text xml:space="preserve" text-anchor="middle" x="286.5" y="-121.33" font-family="Helvetica,sans-Serif" font-size="14.00">value = [1, 0]</text>
<text xml:space="preserve" text-anchor="middle" x="286.5" y="-105.58" font-family="Helvetica,sans-Serif" font-size="14.00">class = malignant</text>
</g>
<!-- 2&#45;&gt;6 -->
<g id="edge6" class="edge">
<title>2&#45;&gt;6</title>
<path fill="none" stroke="black" d="M286.5,-197.79C286.5,-187.56 286.5,-176.32 286.5,-165.91"/>
<polygon fill="black" stroke="black" points="290,-166.1 286.5,-156.1 283,-166.1 290,-166.1"/>
</g>
<!-- 4 -->
<g id="node5" class="node">
<title>4</title>
<polygon fill="#3b9ee5" stroke="black" points="109,-55.25 0,-55.25 0,0 109,0 109,-55.25"/>
<text xml:space="preserve" text-anchor="middle" x="54.5" y="-37.95" font-family="Helvetica,sans-Serif" font-size="14.00">samples = 247</text>
<text xml:space="preserve" text-anchor="middle" x="54.5" y="-22.2" font-family="Helvetica,sans-Serif" font-size="14.00">value = [2, 245]</text>
<text xml:space="preserve" text-anchor="middle" x="54.5" y="-6.45" font-family="Helvetica,sans-Serif" font-size="14.00">class = benign</text>
</g>
<!-- 3&#45;&gt;4 -->
<g id="edge4" class="edge">
<title>3&#45;&gt;4</title>
<path fill="none" stroke="black" d="M112.26,-90.96C104.08,-82.13 95.29,-72.64 87.09,-63.8"/>
<polygon fill="black" stroke="black" points="89.85,-61.62 80.48,-56.67 84.71,-66.38 89.85,-61.62"/>
</g>
<!-- 5 -->
<g id="node6" class="node">
<title>5</title>
<polygon fill="#7bbeee" stroke="black" points="230,-55.25 127,-55.25 127,0 230,0 230,-55.25"/>
<text xml:space="preserve" text-anchor="middle" x="178.5" y="-37.95" font-family="Helvetica,sans-Serif" font-size="14.00">samples = 4</text>
<text xml:space="preserve" text-anchor="middle" x="178.5" y="-22.2" font-family="Helvetica,sans-Serif" font-size="14.00">value = [1, 3]</text>
<text xml:space="preserve" text-anchor="middle" x="178.5" y="-6.45" font-family="Helvetica,sans-Serif" font-size="14.00">class = benign</text>
</g>
<!-- 3&#45;&gt;5 -->
<g id="edge5" class="edge">
<title>3&#45;&gt;5</title>
<path fill="none" stroke="black" d="M156.68,-90.96C159.48,-82.95 162.48,-74.4 165.32,-66.28"/>
<polygon fill="black" stroke="black" points="168.57,-67.58 168.57,-56.98 161.96,-65.27 168.57,-67.58"/>
</g>
<!-- 8 -->
<g id="node9" class="node">
<title>8</title>
<polygon fill="#7bbeee" stroke="black" points="559.75,-162.25 365.25,-162.25 365.25,-91.25 559.75,-91.25 559.75,-162.25"/>
<text xml:space="preserve" text-anchor="middle" x="462.5" y="-144.95" font-family="Helvetica,sans-Serif" font-size="14.00">mean concave points &lt;= 0.08</text>
<text xml:space="preserve" text-anchor="middle" x="462.5" y="-129.2" font-family="Helvetica,sans-Serif" font-size="14.00">samples = 12</text>
<text xml:space="preserve" text-anchor="middle" x="462.5" y="-113.45" font-family="Helvetica,sans-Serif" font-size="14.00">value = [3, 9]</text>
<text xml:space="preserve" text-anchor="middle" x="462.5" y="-97.7" font-family="Helvetica,sans-Serif" font-size="14.00">class = benign</text>
</g>
<!-- 7&#45;&gt;8 -->
<g id="edge8" class="edge">
<title>7&#45;&gt;8</title>
<path fill="none" stroke="black" d="M469.84,-197.79C469.03,-190.08 468.16,-181.81 467.32,-173.74"/>
<polygon fill="black" stroke="black" points="470.83,-173.65 466.3,-164.07 463.87,-174.38 470.83,-173.65"/>
</g>
<!-- 11 -->
<g id="node12" class="node">
<title>11</title>
<polygon fill="#e88f4f" stroke="black" points="747.38,-162.25 577.62,-162.25 577.62,-91.25 747.38,-91.25 747.38,-162.25"/>
<text xml:space="preserve" text-anchor="middle" x="662.5" y="-144.95" font-family="Helvetica,sans-Serif" font-size="14.00">worst symmetry &lt;= 0.268</text>
<text xml:space="preserve" text-anchor="middle" x="662.5" y="-129.2" font-family="Helvetica,sans-Serif" font-size="14.00">samples = 20</text>
<text xml:space="preserve" text-anchor="middle" x="662.5" y="-113.45" font-family="Helvetica,sans-Serif" font-size="14.00">value = [18, 2]</text>
<text xml:space="preserve" text-anchor="middle" x="662.5" y="-97.7" font-family="Helvetica,sans-Serif" font-size="14.00">class = malignant</text>
</g>
<!-- 7&#45;&gt;11 -->
<g id="edge11" class="edge">
<title>7&#45;&gt;11</title>
<path fill="none" stroke="black" d="M536.43,-197.79C553.56,-188.27 572.25,-177.89 589.86,-168.11"/>
<polygon fill="black" stroke="black" points="591.15,-171.39 598.2,-163.47 587.75,-165.27 591.15,-171.39"/>
</g>
<!-- 9 -->
<g id="node10" class="node">
<title>9</title>
<polygon fill="#4fa8e8" stroke="black" points="384,-55.25 281,-55.25 281,0 384,0 384,-55.25"/>
<text xml:space="preserve" text-anchor="middle" x="332.5" y="-37.95" font-family="Helvetica,sans-Serif" font-size="14.00">samples = 10</text>
<text xml:space="preserve" text-anchor="middle" x="332.5" y="-22.2" font-family="Helvetica,sans-Serif" font-size="14.00">value = [1, 9]</text>
<text xml:space="preserve" text-anchor="middle" x="332.5" y="-6.45" font-family="Helvetica,sans-Serif" font-size="14.00">class = benign</text>
</g>
<!-- 8&#45;&gt;9 -->
<g id="edge9" class="edge">
<title>8&#45;&gt;9</title>
<path fill="none" stroke="black" d="M415.93,-90.96C403.51,-81.68 390.11,-71.66 377.75,-62.43"/>
<polygon fill="black" stroke="black" points="379.86,-59.64 369.76,-56.46 375.68,-65.25 379.86,-59.64"/>
</g>
<!-- 10 -->
<g id="node11" class="node">
<title>10</title>
<polygon fill="#e58139" stroke="black" points="523.38,-55.25 401.62,-55.25 401.62,0 523.38,0 523.38,-55.25"/>
<text xml:space="preserve" text-anchor="middle" x="462.5" y="-37.95" font-family="Helvetica,sans-Serif" font-size="14.00">samples = 2</text>
<text xml:space="preserve" text-anchor="middle" x="462.5" y="-22.2" font-family="Helvetica,sans-Serif" font-size="14.00">value = [2, 0]</text>
<text xml:space="preserve" text-anchor="middle" x="462.5" y="-6.45" font-family="Helvetica,sans-Serif" font-size="14.00">class = malignant</text>
</g>
<!-- 8&#45;&gt;10 -->
<g id="edge10" class="edge">
<title>8&#45;&gt;10</title>
<path fill="none" stroke="black" d="M462.5,-90.96C462.5,-83.13 462.5,-74.79 462.5,-66.83"/>
<polygon fill="black" stroke="black" points="466,-67.07 462.5,-57.07 459,-67.07 466,-67.07"/>
</g>
<!-- 12 -->
<g id="node13" class="node">
<title>12</title>
<polygon fill="#9ccef2" stroke="black" points="644,-55.25 541,-55.25 541,0 644,0 644,-55.25"/>
<text xml:space="preserve" text-anchor="middle" x="592.5" y="-37.95" font-family="Helvetica,sans-Serif" font-size="14.00">samples = 3</text>
<text xml:space="preserve" text-anchor="middle" x="592.5" y="-22.2" font-family="Helvetica,sans-Serif" font-size="14.00">value = [1, 2]</text>
<text xml:space="preserve" text-anchor="middle" x="592.5" y="-6.45" font-family="Helvetica,sans-Serif" font-size="14.00">class = benign</text>
</g>
<!-- 11&#45;&gt;12 -->
<g id="edge12" class="edge">
<title>11&#45;&gt;12</title>
<path fill="none" stroke="black" d="M637.43,-90.96C631.33,-82.5 624.79,-73.43 618.64,-64.9"/>
<polygon fill="black" stroke="black" points="621.48,-62.85 612.79,-56.78 615.8,-66.94 621.48,-62.85"/>
</g>
<!-- 13 -->
<g id="node14" class="node">
<title>13</title>
<polygon fill="#e58139" stroke="black" points="783.38,-55.25 661.62,-55.25 661.62,0 783.38,0 783.38,-55.25"/>
<text xml:space="preserve" text-anchor="middle" x="722.5" y="-37.95" font-family="Helvetica,sans-Serif" font-size="14.00">samples = 17</text>
<text xml:space="preserve" text-anchor="middle" x="722.5" y="-22.2" font-family="Helvetica,sans-Serif" font-size="14.00">value = [17, 0]</text>
<text xml:space="preserve" text-anchor="middle" x="722.5" y="-6.45" font-family="Helvetica,sans-Serif" font-size="14.00">class = malignant</text>
</g>
<!-- 11&#45;&gt;13 -->
<g id="edge13" class="edge">
<title>11&#45;&gt;13</title>
<path fill="none" stroke="black" d="M683.99,-90.96C689.16,-82.59 694.7,-73.62 699.92,-65.17"/>
<polygon fill="black" stroke="black" points="702.79,-67.19 705.07,-56.84 696.83,-63.51 702.79,-67.19"/>
</g>
<!-- 15 -->
<g id="node16" class="node">
<title>15</title>
<polygon fill="#399de5" stroke="black" points="729,-261.38 626,-261.38 626,-206.12 729,-206.12 729,-261.38"/>
<text xml:space="preserve" text-anchor="middle" x="677.5" y="-244.07" font-family="Helvetica,sans-Serif" font-size="14.00">samples = 5</text>
<text xml:space="preserve" text-anchor="middle" x="677.5" y="-228.32" font-family="Helvetica,sans-Serif" font-size="14.00">value = [0, 5]</text>
<text xml:space="preserve" text-anchor="middle" x="677.5" y="-212.57" font-family="Helvetica,sans-Serif" font-size="14.00">class = benign</text>
</g>
<!-- 14&#45;&gt;15 -->
<g id="edge15" class="edge">
<title>14&#45;&gt;15</title>
<path fill="none" stroke="black" d="M677.5,-304.79C677.5,-294.56 677.5,-283.32 677.5,-272.91"/>
<polygon fill="black" stroke="black" points="681,-273.1 677.5,-263.1 674,-273.1 681,-273.1"/>
</g>
<!-- 16 -->
<g id="node17" class="node">
<title>16</title>
<polygon fill="#e6843d" stroke="black" points="935.5,-269.25 769.5,-269.25 769.5,-198.25 935.5,-198.25 935.5,-269.25"/>
<text xml:space="preserve" text-anchor="middle" x="852.5" y="-251.95" font-family="Helvetica,sans-Serif" font-size="14.00">worst concavity &lt;= 0.191</text>
<text xml:space="preserve" text-anchor="middle" x="852.5" y="-236.2" font-family="Helvetica,sans-Serif" font-size="14.00">samples = 137</text>
<text xml:space="preserve" text-anchor="middle" x="852.5" y="-220.45" font-family="Helvetica,sans-Serif" font-size="14.00">value = [134, 3]</text>
<text xml:space="preserve" text-anchor="middle" x="852.5" y="-204.7" font-family="Helvetica,sans-Serif" font-size="14.00">class = malignant</text>
</g>
<!-- 14&#45;&gt;16 -->
<g id="edge16" class="edge">
<title>14&#45;&gt;16</title>
<path fill="none" stroke="black" d="M735.77,-304.79C751.33,-295.45 768.29,-285.28 784.33,-275.65"/>
<polygon fill="black" stroke="black" points="786.11,-278.66 792.89,-270.52 782.51,-272.66 786.11,-278.66"/>
</g>
<!-- 17 -->
<g id="node18" class="node">
<title>17</title>
<polygon fill="#bddef6" stroke="black" points="929.12,-162.25 775.88,-162.25 775.88,-91.25 929.12,-91.25 929.12,-162.25"/>
<text xml:space="preserve" text-anchor="middle" x="852.5" y="-144.95" font-family="Helvetica,sans-Serif" font-size="14.00">mean texture &lt;= 21.35</text>
<text xml:space="preserve" text-anchor="middle" x="852.5" y="-129.2" font-family="Helvetica,sans-Serif" font-size="14.00">samples = 5</text>
<text xml:space="preserve" text-anchor="middle" x="852.5" y="-113.45" font-family="Helvetica,sans-Serif" font-size="14.00">value = [2, 3]</text>
<text xml:space="preserve" text-anchor="middle" x="852.5" y="-97.7" font-family="Helvetica,sans-Serif" font-size="14.00">class = benign</text>
</g>
<!-- 16&#45;&gt;17 -->
<g id="edge17" class="edge">
<title>16&#45;&gt;17</title>
<path fill="none" stroke="black" d="M852.5,-197.79C852.5,-190.17 852.5,-182 852.5,-174.02"/>
<polygon fill="black" stroke="black" points="856,-174.07 852.5,-164.07 849,-174.07 856,-174.07"/>
</g>
<!-- 20 -->
<g id="node21" class="node">
<title>20</title>
<polygon fill="#e58139" stroke="black" points="1069.38,-154.38 947.62,-154.38 947.62,-99.12 1069.38,-99.12 1069.38,-154.38"/>
<text xml:space="preserve" text-anchor="middle" x="1008.5" y="-137.07" font-family="Helvetica,sans-Serif" font-size="14.00">samples = 132</text>
<text xml:space="preserve" text-anchor="middle" x="1008.5" y="-121.33" font-family="Helvetica,sans-Serif" font-size="14.00">value = [132, 0]</text>
<text xml:space="preserve" text-anchor="middle" x="1008.5" y="-105.58" font-family="Helvetica,sans-Serif" font-size="14.00">class = malignant</text>
</g>
<!-- 16&#45;&gt;20 -->
<g id="edge20" class="edge">
<title>16&#45;&gt;20</title>
<path fill="none" stroke="black" d="M904.45,-197.79C922.09,-185.91 941.75,-172.67 959.19,-160.94"/>
<polygon fill="black" stroke="black" points="961.03,-163.92 967.37,-155.44 957.12,-158.12 961.03,-163.92"/>
</g>
<!-- 18 -->
<g id="node19" class="node">
<title>18</title>
<polygon fill="#399de5" stroke="black" points="904,-55.25 801,-55.25 801,0 904,0 904,-55.25"/>
<text xml:space="preserve" text-anchor="middle" x="852.5" y="-37.95" font-family="Helvetica,sans-Serif" font-size="14.00">samples = 3</text>
<text xml:space="preserve" text-anchor="middle" x="852.5" y="-22.2" font-family="Helvetica,sans-Serif" font-size="14.00">value = [0, 3]</text>
<text xml:space="preserve" text-anchor="middle" x="852.5" y="-6.45" font-family="Helvetica,sans-Serif" font-size="14.00">class = benign</text>
</g>
<!-- 17&#45;&gt;18 -->
<g id="edge18" class="edge">
<title>17&#45;&gt;18</title>
<path fill="none" stroke="black" d="M852.5,-90.96C852.5,-83.13 852.5,-74.79 852.5,-66.83"/>
<polygon fill="black" stroke="black" points="856,-67.07 852.5,-57.07 849,-67.07 856,-67.07"/>
</g>
<!-- 19 -->
<g id="node20" class="node">
<title>19</title>
<polygon fill="#e58139" stroke="black" points="1043.38,-55.25 921.62,-55.25 921.62,0 1043.38,0 1043.38,-55.25"/>
<text xml:space="preserve" text-anchor="middle" x="982.5" y="-37.95" font-family="Helvetica,sans-Serif" font-size="14.00">samples = 2</text>
<text xml:space="preserve" text-anchor="middle" x="982.5" y="-22.2" font-family="Helvetica,sans-Serif" font-size="14.00">value = [2, 0]</text>
<text xml:space="preserve" text-anchor="middle" x="982.5" y="-6.45" font-family="Helvetica,sans-Serif" font-size="14.00">class = malignant</text>
</g>
<!-- 17&#45;&gt;19 -->
<g id="edge19" class="edge">
<title>17&#45;&gt;19</title>
<path fill="none" stroke="black" d="M899.07,-90.96C911.49,-81.68 924.89,-71.66 937.25,-62.43"/>
<polygon fill="black" stroke="black" points="939.32,-65.25 945.24,-56.46 935.14,-59.64 939.32,-65.25"/>
</g>
</g>
</svg>