<?xml version="1.0" encoding="UTF-8" standalone="no"?>
<!DOCTYPE svg PUBLIC "-//W3C//DTD SVG 1.1//EN"
 "http://www.w3.org/Graphics/SVG/1.1/DTD/svg11.dtd">
<!-- Generated by graphviz version 13.1.0 (20250701.0955)
 -->
<!-- Title: Tree Pages: 1 -->
<svg width="293pt" height="230pt"
 viewBox="0.00 0.00 293.00 230.00" xmlns="http://www.w3.org/2000/svg" xmlns:xlink="http://www.w3.org/1999/xlink">
<g id="graph0" class="graph" transform="scale(1 1) rotate(0) translate(4 226)">
<title>Tree</title>
<polygon fill="white" stroke="none" points="-4,4 -4,-226 288.5,-226 288.5,4 -4,4"/>
<!-- 0 -->
<g id="node1" class="node">
<title>0</title>
<polygon fill="#ffffff" stroke="black" points="166.25,-222 57.25,-222 57.25,-166.75 166.25,-166.75 166.25,-222"/>
<text xml:space="preserve" text-anchor="middle" x="111.75" y="-204.7" font-family="Helvetica,sans-Serif" font-size="14.00">x[1] &lt;= &#45;5.814</text>
<text xml:space="preserve" text-anchor="middle" x="111.75" y="-188.95" font-family="Helvetica,sans-Serif" font-size="14.00">samples = 100</text>
<text xml:space="preserve" text-anchor="middle" x="111.75" y="-173.2" font-family="Helvetica,sans-Serif" font-size="14.00">value = [50, 50]</text>
</g>
<!-- 1 -->
<g id="node2" class="node">
<title>1</title>
<polygon fill="#e58139" stroke="black" points="101.5,-122.88 0,-122.88 0,-83.38 101.5,-83.38 101.5,-122.88"/>
<text xml:space="preserve" text-anchor="middle" x="50.75" y="-105.58" font-family="Helvetica,sans-Serif" font-size="14.00">samples = 25</text>
<text xml:space="preserve" text-anchor="middle" x="50.75" y="-89.83" font-family="Helvetica,sans-Serif" font-size="14.00">value = [25, 0]</text>
</g>
<!-- 0&#45;&gt;1 -->
<g id="edge1" class="edge">
<title>0&#45;&gt;1</title>
<path fill="none" stroke="black" d="M93.45,-166.6C86.14,-155.9 77.71,-143.57 70.29,-132.71"/>
<polygon fill="black" stroke="black" points="73.19,-130.76 64.66,-124.48 67.42,-134.71 73.19,-130.76"/>
<text xml:space="preserve" text-anchor="middle" x="59.19" y="-142.37" font-family="Helvetica,sans-Serif" font-size="14.00">True</text>
</g>
<!-- 2 -->
<g id="node3" class="node">
<title>2</title>
<polygon fill="#9ccef2" stroke="black" points="228.25,-130.75 119.25,-130.75 119.25,-75.5 228.25,-75.5 228.25,-130.75"/>
<text xml:space="preserve" text-anchor="middle" x="173.75" y="-113.45" font-family="Helvetica,sans-Serif" font-size="14.00">x[1] &lt;= 5.348</text>
<text xml:space="preserve" text-anchor="middle" x="173.75" y="-97.7" font-family="Helvetica,sans-Serif" font-size="14.00">samples = 75</text>
<text xml:space="preserve" text-anchor="middle" x="173.75" y="-81.95" font-family="Helvetica,sans-Serif" font-size="14.00">value = [25, 50]</text>
</g>
<!-- 0&#45;&gt;2 -->
<g id="edge2" class="edge">
<title>0&#45;&gt;2</title>
<path fill="none" stroke="black" d="M130.35,-166.6C136.06,-158.38 142.44,-149.19 148.52,-140.44"/>
<polygon fill="black" stroke="black" points="151.25,-142.65 154.08,-132.44 145.5,-138.65 151.25,-142.65"/>
<text xml:space="preserve" text-anchor="middle" x="159.38" y="-150.37" font-family="Helvetica,sans-Serif" font-size="14.00">False</text>
</g>
<!-- 3 -->
<g id="node4" class="node">
<title>3</title>
<polygon fill="#399de5" stroke="black" points="164.5,-39.5 63,-39.5 63,0 164.5,0 164.5,-39.5"/>
<text xml:space="preserve" text-anchor="middle" x="113.75" y="-22.2" font-family="Helvetica,sans-Serif" font-size="14.00">samples = 50</text>
<text xml:space="preserve" text-anchor="middle" x="113.75" y="-6.45" font-family="Helvetica,sans-Serif" font-size="14.00">value = [0, 50]</text>
</g>
<!-- 2&#45;&gt;3 -->
<g id="edge3" class="edge">
<title>2&#45;&gt;3</title>
<path fill="none" stroke="black" d="M153.77,-75.03C147.58,-66.63 140.74,-57.36 134.5,-48.89"/>
<polygon fill="black" stroke="black" points="137.42,-46.95 128.67,-40.98 131.78,-51.11 137.42,-46.95"/>
</g>
<!-- 4 -->
<g id="node5" class="node">
<title>4</title>
<polygon fill="#e58139" stroke="black" points="284.5,-39.5 183,-39.5 183,0 284.5,0 284.5,-39.5"/>
<text xml:space="preserve" text-anchor="middle" x="233.75" y="-22.2" font-family="Helvetica,sans-Serif" font-size="14.00">samples = 25</text>
<text xml:space="preserve" text-anchor="middle" x="233.75" y="-6.45" font-family="Helvetica,sans-Serif" font-size="14.00">value = [25, 0]</text>
</g>
<!-- 2&#45;&gt;4 -->
<g id="edge4" class="edge">
<title>2&#45;&gt;4</title>
<path fill="none" stroke="black" d="M193.73,-75.03C199.92,-66.63 206.76,-57.36 213,-48.89"/>
<polygon fill="black" stroke="black" points="215.72,-51.11 218.83,-40.98 210.08,-46.95 215.72,-51.11"/>
</g>
</g>
</svg>